<?xml version="1.0" encoding="UTF-8"?> <svg xmlns="http://www.w3.org/2000/svg" xmlns:xlink="http://www.w3.org/1999/xlink" version="1.1" id="Ebene_1" x="0px" y="0px" width="300px" height="300px" viewBox="0 0 300 300" style="enable-background:new 0 0 300 300;" xml:space="preserve"> <style type="text/css"> .st0{fill:#3C3C3B;} .st1{fill:#1E5EA5;} .st2{fill:none;} .st3{fill:#2A2F72;} .st4{fill:none;stroke:#093A59;stroke-width:14;stroke-linecap:round;stroke-miterlimit:10;} .st5{fill:#C4B07F;} .st6{fill:#719FCD;} </style> <g> <path class="st0" d="M230.85,113.2l3.2-4.66h-44.19c-0.32-1.48-0.32-4.62-0.32-5c0.02-2.45,0.74-4.69,1.99-6.79 c0.45-0.75,1.18-1.46,1.12-2.37c-0.09-1.25,0.84-1.83,1.59-1.82c0.28,0,3.6,0.43,3.69,0.45c0.57,0.09,1.15,0.12,1.69-0.15 c0.71,0.94,0.45,1.93,0.01,2.82c-1.04,2.11-0.48,4.85-2.71,6.51c-0.52,0.39,0.62,2.98,1.24,2.71c0.61-0.26,1.7-0.32,1.47-1.5 c-0.16-1.74,1.41-3.03,1.18-4.81c-0.16-1.27,0.21-2.44,0.81-3.62c0.52-1.02,0.62-2.13-0.23-3.32c-0.61-0.86-1.73-1.81-1.27-3.14 c1.48-4.31,0.41-8.26-1.62-12.09c0.74-1.04,0.32-2.95,2.31-3.05c0.94-1.05,1.33-2.12,1.28-3.67c-0.06-1.66,0.82-3.47,0.82-5.09 c0-1.47,0.3-2.75,0.66-4.13c-0.51-0.11-1.19-0.05-1.45-0.35c-0.93-1.1-1.91-1.47-3.32-0.98c-1.37,0.48-2.73,0.88-3.77,2 c-2.89,3.14-4.38,6.85-4.59,11.09c-0.14,2.75-1.03,4.89-5.17,5.83c-1.15,0.26-2.54,0.66-3.32,1.41c-2.29-0.52-7.9-1.96-11.53-2.65 c-0.09-0.24-0.19-0.47-0.3-0.7c-0.33-0.64-0.78-0.88-1.24-1.25c-0.29-1.65-0.08-3.3,0.07-4.94c0.56-0.59,0.73-1.29,0.72-2.09 c-0.03-1.63-0.33-3.34,0.06-4.87c0.45-1.77-1.02-3.16-0.71-4.81c1.54,0.43,3.2,0.29,4.77-0.37c0,0-10.92-5.89-13.31-7.76 c0.57,0.3,7.16,3.81,10.59,5.54c3.69,1.87,5.61,1.84,8.5-0.17c0,0-15.56-5.19-17.93-6.48c0,0,11.24,3.56,15.11,4.63 c3.87,1.07,6.27-0.41,7.55-2.35c0,0-20-2.92-21.83-3.56c0.63,0.11,11.86,1.51,17.16,2.13c5.09,0.59,7.2-1.44,7.78-3.57 c0,0-16.48,0-23.57,0c-4.28,0-7.69,1.23-10.24,3.3l-0.1-0.31c-0.4,0.3-0.8,0.6-1.2,0.9c-0.47-0.91-1.87-0.82-2.13-1.87 c-0.33-1.34,0.07-2.56,0.66-3.84c0.5-1.07,1.38-2.26,0.39-3.64c-0.91-1.27-2.11-0.87-3.27-0.84c-0.32,0.01-0.64,0.05-0.96,0.09 v-8.88c3.16-0.4,5.61-3.06,5.61-6.33c0-0.6-0.08-1.16-0.23-1.69c-0.46-1.65-1.58-2.96-2.99-3.77c-0.21-0.43-0.77-0.8-0.38-1.33 c0-0.03-0.01-0.06-0.01-0.09c-0.16-1.69-0.55-3.43,1.89-3.99c1.16-0.27,5.69-8.58,5.04-10.98c-1.89,0.64-3.2,2.18-4.91,3.08 c-1.13,0.6-2.04,1.26-1.57,2.78c0.17,0.55-0.23,0.95-0.69,1.24c-1.86-0.09-1.75-1.44-1.75-2.73c0-0.66-0.17-1.27-0.81-1.57 c-0.3-0.14-0.81,0.03-0.79,0.31c0.04,0.62-0.31,1.25,0.19,1.88c0.94,1.18,0.44,2.12-0.68,2.87c-0.4-0.55-1.45-0.5-1.47-1.34 c-0.03-1.84-1.3-2.63-2.65-3.38c-1.53-0.85-5.29-3.24-5.69-2.99c-0.49,0.31,2.36,7.24,5.29,9.06c0.32,0.2,5.45,4.45,5.31,5.19 c-0.29,1.43-1.08,0.16-1.61,0.32c-0.58,0.5-1.08,1.04-1.35,1.73c-0.23,0.15-0.46,0.31-0.68,0.49c-0.62,0.52-1.1,1.12-1.45,1.76 c-1.03,1.88-0.98,4.14-0.06,5.99c0.88,1.79,2.56,3.19,4.84,3.48v8.83c-0.11-0.02-0.81,0.24-1.04,0.39 c-0.74,1.47-2.75,1.83-3.15,3.6c-0.4,0.42-0.83,0.8-1.48,0.55c-1.16,0.25-0.95,0.6-3.18,3.6c-2.22-1.19-4.91-1.87-8.08-1.87 c-7.09,0-23.57,0-23.57,0c0.58,2.13,2.69,4.16,7.78,3.57c5.3-0.62,16.53-2.02,17.16-2.13c-1.84,0.64-21.83,3.56-21.83,3.56 c1.28,1.94,3.68,3.42,7.55,2.35c3.87-1.07,15.11-4.63,15.11-4.63c-2.37,1.28-17.93,6.48-17.93,6.48c2.89,2.01,4.81,2.04,8.5,0.17 c3.43-1.73,10.02-5.24,10.59-5.54c-2.39,1.88-13.31,7.76-13.31,7.76c2.41,1.01,5.01,0.81,7.12-0.82c2.51-1.95,6.57-5.24,7.37-5.89 c-0.73,1.17-8.32,7.63-8.32,7.63c2.89,0.43,4.99-0.77,6.17-2.28c1.08-1.37,2.78-3.44,3.5-4.4c-0.68,2.02-4.47,6.87-4.47,6.87 c2.22-0.1,3.61-0.94,4.38-2.5c0.41-0.82,0.73-1.46,1.01-2.01c0.02,0.2,0.05,0.42,0.07,0.67c-0.61,1.76-1.47,3.79-1.47,3.79 c0.76,0.02,1.37-0.07,1.88-0.27c0.26,2.16,0.55,4.54,0.78,6.18c0.08,0.93,0.17,1.86,0.25,2.79c-0.43,1.17,0.04,2.14,0.65,3.09 c-0.55,0.3-1.18,0.48-1.48,1.11c-0.77,0.48-1.54,0.97-2.36,1.48c-0.28-1.07,0.27-4.86-0.08-6.04c-0.1-0.14-0.21-0.28-0.31-0.41 c0.61-0.76,0.9-4.13-0.76-6.62c-0.58-0.87-1.23-0.98-2.35-0.78c-2.71,0.5-3.84,5.76-4.43,7.46c-1.02,2.97,1.25,2.87,0.84,5.8 c-0.25,1.75-0.45,3.66-1.8,5.37c-0.1,0.13-0.09,0.06-0.18,0.2c-0.04,0.04-7.14,2.3-7.14,2.23c-0.64-1.3-2.05-2.35-3.52-2.43 c-1.73-0.1-3.35-0.42-4.52-1.9c-1.7-2.15-2.27-4.76-3.13-7.28c-0.99-2.9-2.17-5.75-4.31-8.05c-1.34-1.44-3.47-1.81-4.88-0.8 c-0.03,0.08-0.06,0.16-0.09,0.24c-1.56,0.17-3.13,0.33-2.22,2.61c0.07,0.17,0.03,0.38,0.01,0.57c-0.37,3.2,1.21,6.23,0.84,9.45 c-0.05,0.45,0.89,1.41,0.75,1.54c0.74,0.31,1.64,1.02,2.12,0.98c1.06-0.1,1.1,0.23,1.04,1c-0.29,0.75-0.05,1.51-0.83,2.3 c-2.24,2.28-2.1,5.64,0,7.86c0,0,0,2.89-0.96,3.56c-1.3,0.91-1.22,2.19-0.99,3.36c0.55,2.84,0.24,5.69,0.34,8.54 c0.03,0.76-0.07,1.55,0.82,1.94c0.81,1.09,1.56,1.42,2.19-0.15c0.56-0.72,0.77-1.78,0.32-2.32c-1.6-1.93-1.38-4.17-1.4-6.36 c-0.01-1.59,0.77-2.58,2.54-2.41c0.31-0.01,0.66-0.11,0.94-0.02c0.99,0.34,2.22,1.29,1.71-1.01c-0.09-0.39,0.53-0.89,0.9-0.34 c1.25,1.84,2.68,3.82,2.85,5.93c0.11,1.37,0.14,2.8,0.37,4.19h0c0.22,1.3,0.38,4.65,0.55,4.53c-0.15,0.11-1.02,1.55-1.09,2.54 H63.93l3.2,4.66v1.37h-1.46v7.28v18.35v71.96h11.07h1.53l0.07-4.3l-1.6-1.6V140.2h16.31v66.27l-1.53,1.53l0.07,4.3h1.53v-0.14h11 v0.07h1.53l0.07-4.3l-1.6-1.6V140.2h18.64v66.2l-1.53,1.53l0.07,4.3h1.53v-0.07h10.93h0.07h1.46l0.07-4.3l-1.53-1.53V140.2h30.3 v66.27l-1.46,1.46l0.07,4.3h1.53v-0.07h10.93v0.07h1.53l0.07-4.3l-1.6-1.6V140.2h19.15v66.2l-1.46,1.46l0.07,4.3h1.38v0.15h11.07 v-72.1h15.8v66.13l-1.6,1.6l0.07,4.3h1.53v-0.07h11.07v-90.31h0v-7.28h-1.46V113.2z M165.41,107.95c-0.06,0.21-0.13,0.4-0.21,0.58 h-5.16c0.05-0.24,0.12-0.51,0.16-0.8c0.18-1.49,1.09-6.9,1.44-6.93c0.19-0.12,0.38-0.25,0.62-0.31c1.18-0.32,2.71,0.4,2.96,1.68 c0.18,0.92,0.25,1.84,0.27,2.76c0.05,0.34,0.1,0.68,0.13,1.03C165.66,106.63,165.59,107.31,165.41,107.95z M184.43,96.57 c0.11-0.3,0.16-0.61,0.23-0.92c0.14-0.61-0.3-1.47,0.76-1.68c0.89-0.18,1.72,0.2,2.14,0.79c0.32,0.45,0.37,1.2-0.05,2.03 c-0.69,1.39-1.44,2.75-2.11,4.15c-0.13,0.27-0.26,0.66-0.17,0.91c0.86,2.29,0.19,4.48-0.38,6.69h-0.33 C183.88,104.56,182.93,100.58,184.43,96.57z M181.46,80.1c-1.24,1.86-1.86,4.08-1.81,6.41c0.11,0.05-5.22,3.46-6.82,4.53 c-0.36,0.24-0.79,0.79-1.3,0.37c-0.41-0.34-0.19-0.86,0.03-1.23c0.44-0.76,0.47-1.57,0.47-2.39c0-2.08-0.03-4.17-0.05-6.25 c0.52-0.41,0.47-0.93,0.08-1.31c-0.81-0.79-1.1-1.83-1.44-2.85C174.04,78.23,179.08,79.46,181.46,80.1z M170.51,104.01 c0.01-0.55,0.39-3.93,1.14-4.52c1.66-1.31-0.25-2.58-0.41-2.97c-0.37-0.73,0.59-1.81-0.62-2.31c1.96-2.83,5.19-4.03,7.81-6.02 c0.52-0.39,0.85,0.42,0.85,0.42c-0.51,0.8-0.18,1.61-0.02,2.41c-0.37,1.17-2.15,1.84-0.87,2.12c0.98,0.22,1.48,1.15,1.34,2.44 c-0.24,2.19-0.19,4.41-0.26,6.61c0,0.01,0,0.01,0.01,0.01c0,0,0-0.01-0.01-0.01c0.08,1.68-1.01,3.4,0.19,5.03 c0.03,0.04,0.75,0.71,0.98,1.31h-11.17C169.53,107.2,170.49,105.35,170.51,104.01z M166.66,56.97c-0.28,0.04-0.56,0.11-0.83,0.2 c-2.29-1.99-6.01-5.27-6.51-6.07C160.12,51.75,164.14,55.01,166.66,56.97z M157.97,52.04c0.71,0.96,2.42,3.03,3.5,4.4 c0.6,0.76,1.44,1.45,2.49,1.89c-0.54,0.55-0.95,1.22-1.14,2c-0.56,2.25-1.44,4.42-1.29,6.86c0.07,1.16-1.04,3.54-1.04,3.54 l-3.93-12.13c0.51,0.2,1.12,0.29,1.88,0.27c0,0-1.78-4.23-2.05-5.76c0.42,0.86,0.9,1.76,1.67,3.31c0.77,1.56,2.16,2.41,4.38,2.5 C162.44,58.91,158.65,54.07,157.97,52.04z M154.8,63.65c0.49,0.57,1.23,3.94,0.92,4.8c-0.07,0.73-0.07,0.73,0,0 c-0.38-0.12-0.89,0.06-1.1-0.46C154.66,67.63,154.72,64.16,154.8,63.65z M157.89,100.92c0.57,2.52,0.36,5.06,0.29,7.61 c0,0,0,0.01,0,0.01h-7.88l0.04-6.31C150.34,102.23,157.34,100.92,157.89,100.92z M141.21,24.87c0-2.8,2.28-5.08,5.08-5.08 s5.08,2.28,5.08,5.08c0,2.8-2.28,5.08-5.08,5.08S141.21,27.67,141.21,24.87z M143.85,44.18c1.23,0.91,0.94,2.11,0.63,3.3 c-0.28,1.09-1.18,0.56-1.71,0.47C141.22,47.7,142.82,44.16,143.85,44.18z M140.6,101.16c0.83,0.14,6.51,0.92,6.51,0.92l0.01,6.45 h-8.14c0.02-0.4,0.05-0.9,0.06-1.13C139.04,106.63,139.1,101.36,140.6,101.16z M135.08,101.63c-0.02-0.3-0.19-0.64-0.05-0.9 c0.53-1,1.23,0.2,1.49,0.83c0.94,2.28,0.66,4.63,0.44,6.98h-3.02c0.1-0.26,0.44-0.52,0.55-0.79 C135.3,105.79,136.1,103.78,135.08,101.63z M131.06,101.13c1.16-0.06,0.76,0.95,0.66,1.58c-0.01,1.56-0.21,4.16-0.95,5.83h-2.15 c0.28-1.67,1.11-4.21,1.15-5.26C129.81,102.27,129.87,101.2,131.06,101.13z M123.79,79.44c-1.28,2.47-1.29,5.35-0.69,8.2 c0.38,1.08,0.92,2.12,0.98,3.51c-2.41-0.73-4.12-2.16-5.63-3.9c0.76-1.81,0.5-4.2-0.78-5.75 C117.68,81.43,123.76,79.42,123.79,79.44z M115.78,107.08c1-1.95,1.25-4.02,0.99-6.23c-0.22-1.82-0.15-3.68-0.17-5.53 c-0.01-0.8,0.27-1.26,0.5-1.81c0.24-0.58,0.82-2.61,1.49-4.14c4.19,2.3,6.44,3.97,6.53,8.33c0,0.22,0.11,0.43,0.11,0.66v0.93 c0,0.41-0.08,1.89-0.07,2.29c0.04,2.04-0.02,4.08,0.05,6.12c0.01,0.31-0.02,0.58-0.07,0.82h-9.89 C115.29,108.08,115.54,107.55,115.78,107.08z"></path> <polygon class="st0" points="205.44,212.3 206.97,212.3 207.04,208.01 205.44,206.4 "></polygon> </g> <g> <path class="st1" d="M191.83,111.72L191.83,111.72C191.83,111.73,191.83,111.73,191.83,111.72z"></path> <g> <g> <path class="st0" d="M147.72,23.25l-1.2,1.2c-0.05-0.02-0.11-0.03-0.17-0.03c-0.1,0-0.2,0.03-0.28,0.09l-2.5-1.48 c-0.09-0.05-0.21-0.02-0.26,0.07c-0.05,0.09-0.02,0.21,0.07,0.26l2.5,1.48c0,0.02,0,0.04,0,0.06c0,0.2,0.12,0.37,0.3,0.44 l-0.77,2.79c-0.01,0.03,0.01,0.06,0.04,0.07c0,0,0.01,0,0.01,0c0.02,0,0.05-0.02,0.05-0.04l0.77-2.79c0.02,0,0.05,0.01,0.07,0.01 c0.26,0,0.48-0.21,0.48-0.48c0-0.06-0.01-0.12-0.03-0.17l1.2-1.2c0.08-0.08,0.08-0.2,0-0.27 C147.91,23.18,147.79,23.18,147.72,23.25z"></path> </g> <g> <circle class="st2" cx="146.29" cy="24.87" r="4.59"></circle> <g> <path class="st0" d="M146.29,21.28c-0.08,0-0.15-0.07-0.15-0.15v-0.85c0-0.08,0.07-0.15,0.15-0.15s0.15,0.07,0.15,0.15v0.85 C146.44,21.21,146.37,21.28,146.29,21.28z"></path> <path class="st0" d="M146.29,29.61c-0.08,0-0.15-0.07-0.15-0.15v-0.85c0-0.08,0.07-0.15,0.15-0.15s0.15,0.07,0.15,0.15v0.85 C146.44,29.54,146.37,29.61,146.29,29.61z"></path> </g> <g> <path class="st0" d="M142.55,25.02h-0.85c-0.08,0-0.15-0.07-0.15-0.15c0-0.08,0.07-0.15,0.15-0.15h0.85 c0.08,0,0.15,0.07,0.15,0.15C142.7,24.95,142.63,25.02,142.55,25.02z"></path> <g> <line class="st3" x1="150.03" y1="24.87" x2="150.88" y2="24.87"></line> <path class="st0" d="M150.88,25.02h-0.85c-0.08,0-0.15-0.07-0.15-0.15c0-0.08,0.07-0.15,0.15-0.15h0.85 c0.08,0,0.15,0.07,0.15,0.15C151.03,24.95,150.96,25.02,150.88,25.02z"></path> </g> </g> <g> <g> <g> <path class="st0" d="M144.22,21.33c-0.01,0-0.03-0.01-0.04-0.02l-0.22-0.39c-0.01-0.02,0-0.05,0.02-0.06 c0.02-0.01,0.05,0,0.06,0.02l0.22,0.39c0.01,0.02,0,0.05-0.02,0.06C144.24,21.32,144.23,21.33,144.22,21.33z"></path> <path class="st0" d="M148.58,28.88c-0.01,0-0.03-0.01-0.04-0.02l-0.22-0.39c-0.01-0.02,0-0.05,0.02-0.06 c0.02-0.01,0.05,0,0.06,0.02l0.22,0.39c0.01,0.02,0,0.05-0.02,0.06C148.6,28.88,148.59,28.88,148.58,28.88z"></path> </g> <g> <path class="st0" d="M142.32,27.2c-0.01,0-0.03-0.01-0.04-0.02c-0.01-0.02,0-0.05,0.02-0.06l0.39-0.22 c0.02-0.01,0.05,0,0.06,0.02c0.01,0.02,0,0.05-0.02,0.06l-0.39,0.22C142.33,27.2,142.33,27.2,142.32,27.2z"></path> <path class="st0" d="M149.87,22.84c-0.01,0-0.03-0.01-0.04-0.02c-0.01-0.02,0-0.05,0.02-0.06l0.39-0.22 c0.02-0.01,0.05,0,0.06,0.02c0.01,0.02,0,0.05-0.02,0.06l-0.39,0.22C149.89,22.84,149.88,22.84,149.87,22.84z"></path> </g> </g> <g> <g> <path class="st0" d="M142.71,22.84c-0.01,0-0.01,0-0.02-0.01l-0.39-0.22c-0.02-0.01-0.03-0.04-0.02-0.06 c0.01-0.02,0.04-0.03,0.06-0.02l0.39,0.22c0.02,0.01,0.03,0.04,0.02,0.06C142.73,22.83,142.72,22.84,142.71,22.84z"></path> <path class="st0" d="M150.26,27.2c-0.01,0-0.01,0-0.02-0.01l-0.39-0.22c-0.02-0.01-0.03-0.04-0.02-0.06 c0.01-0.02,0.04-0.03,0.06-0.02l0.39,0.22c0.02,0.01,0.03,0.04,0.02,0.06C150.29,27.2,150.28,27.2,150.26,27.2z"></path> </g> <g> <path class="st0" d="M144,28.88c-0.01,0-0.01,0-0.02-0.01c-0.02-0.01-0.03-0.04-0.02-0.06l0.22-0.39 c0.01-0.02,0.04-0.03,0.06-0.02c0.02,0.01,0.03,0.04,0.02,0.06l-0.22,0.39C144.03,28.87,144.01,28.88,144,28.88z"></path> <path class="st0" d="M148.36,21.33c-0.01,0-0.01,0-0.02-0.01c-0.02-0.01-0.03-0.04-0.02-0.06l0.22-0.39 c0.01-0.02,0.04-0.03,0.06-0.02c0.02,0.01,0.03,0.04,0.02,0.06l-0.22,0.39C148.39,21.32,148.37,21.33,148.36,21.33z"></path> </g> </g> </g> <circle class="st0" cx="146.29" cy="24.87" r="0.48"></circle> <path class="st4" d="M147.83,23.68"></path> <path class="st4" d="M146.33,25.19"></path> <path class="st4" d="M143.49,24.04"></path> <path class="st4" d="M146.37,25.74"></path> <g> <circle class="st5" cx="146.29" cy="24.87" r="0.28"></circle> <path class="st0" d="M146.29,25.16c-0.16,0-0.29-0.13-0.29-0.29c0-0.16,0.13-0.29,0.29-0.29c0.16,0,0.29,0.13,0.29,0.29 C146.58,25.03,146.45,25.16,146.29,25.16z M146.29,24.61c-0.14,0-0.26,0.12-0.26,0.26c0,0.14,0.12,0.26,0.26,0.26 c0.14,0,0.26-0.12,0.26-0.26C146.55,24.72,146.44,24.61,146.29,24.61z"></path> </g> <g> <line class="st6" x1="146.29" y1="24.87" x2="145.4" y2="28.12"></line> <path class="st5" d="M145.4,28.17c0,0-0.01,0-0.01,0c-0.03-0.01-0.05-0.04-0.04-0.07l0.9-3.25c0.01-0.03,0.04-0.05,0.07-0.04 c0.03,0.01,0.05,0.04,0.04,0.07l-0.9,3.25C145.44,28.16,145.42,28.17,145.4,28.17z"></path> </g> </g> </g> <path class="st5" d="M202.14,60.13c-0.93-1.1-1.91-1.47-3.32-0.98c-1.37,0.48-2.73,0.88-3.77,2c-2.89,3.14-4.38,6.85-4.59,11.09 c-0.14,2.75-1.03,4.89-5.17,5.83c-1.15,0.26-2.54,0.66-3.32,1.41c-0.01-0.03-11.63-2.87-11.63-2.87c-0.09-0.24-0.08-0.26-0.2-0.48 c-0.33-0.64-0.78-0.88-1.24-1.25l0,0v0c-1.39-0.21-2.79-0.35-4.19-0.41c-1.4-0.06-2.8-0.04-4.21,0.09 c-0.4,0.04-0.75-0.12-0.97-0.49c-1.03-1.73-2.69-2.06-4.49-1.95c-1.46,0.08-1.57-1.42-2.5-2.04c1.38-0.1,2.74-0.49,3.98,0.6 c0.92,0.8,1.96,0.62,2.78-0.2c0.98-0.98-0.09-1.73-0.44-2.52c-0.23-0.51-0.5-1.01-1.27-0.37c-0.8,0.67-0.49,0.72,0.22,0.96 c0.16,0.05,0.26,0.88,0.08,1.15c-0.23,0.36-0.9,0.45-1.16,0.05c-0.31-0.46-1.07-0.57-1-1.29c-0.38-0.12-0.89,0.06-1.1-0.46 c-1.51,1.06-2.9-0.25-4.36-0.27c-0.35,0-0.63-0.92-0.98,0.1c-0.24,0.71-0.35,1.19,0.51,1.49c0.57,0.2,1.53-0.35,1.64,0.94 c-2.83-0.59-5.6,0.13-8.4,0.16c-0.25,0-0.53,0.04-0.74,0.15c-0.41,0.23-0.66,0.88-1.27,0.51c-0.33-0.2-0.28-0.73-0.09-0.83 c0.53-0.29,0.57-1.24,1.59-0.95c1.15,0.32,1.19,0.18,2.8-0.71c-0.53-1.15-1.63-0.01-2.46-0.7c0.62-0.25,1.25-0.28,1.48-1.12 c0.41-1.51,1.16-2.92,2.95-3.34c0.75-0.17,0.75-0.76,0.71-1.46c-0.04-0.58-0.22-0.84-0.72-0.87c-0.48-0.03-0.73,0.36-0.65,0.76 c0.19,0.94-0.63,0.97-1.05,1.43c-1.22,1.32-1.37,0.26-1.69-0.58c-0.1-0.27,0.1-0.72-0.35-0.76c-0.42-0.04-0.79,0.29-0.82,0.64 c-0.06,0.57-0.58,0.84-0.69,1.33c-0.18,0.83-0.3,1.62-1.39,0.7c-0.25-0.21-0.34,0.26-0.39,0.4c-0.2,0.56-0.32,1.14-0.48,1.75 c-0.79-0.44-0.07-1.29-0.63-1.73c-1.49,0.15-1.93,1.34-2.39,2.51c-0.43,1.17,0.04,2.14,0.65,3.09c0.35,1.58,1.51-0.03,2.12,0.54 c-0.68,1.7-2.71,1.94-3.67,3.36c-0.06,0.09-0.54,0.05-0.68-0.09c-0.29-0.28-0.11-0.62,0.18-0.76c0.94-0.45,0.6-1.24,0.57-1.95 c-0.77,0.48-1.54,0.97-2.36,1.48c-1.99-0.62-1.22,4.83-2.4,4.94c-0.77,0.07-0.9-0.63-1.15-1.05c-0.78-1.29-1.83-2.58-0.73-4.21 c0.14-0.2,0.21-0.5,0.39-0.6c1.76-1.04,2.17-1.7,2.31-3.94c0.05-0.8,0.93-3.48,1.04-3.59c1.73-1.73,0.04-3.2-0.62-4.62 c-0.43-0.95-1.23-0.98-2.35-0.78c-2.71,0.5-3.84,5.76-4.43,7.46c-1.02,2.97,1.25,2.87,0.84,5.8c-0.25,1.75-0.45,3.66-1.8,5.37 c-0.1,0.13-0.18,0.27-0.27,0.4c-0.23,0.33-0.44,0.67-0.62,1.01c-1.28,2.47-1.29,5.35-0.69,8.2c0.16-0.3,0.25-0.61,0.31-0.93 c0.1-0.55,0.09-1.11,0.1-1.67c0.01-0.29,1.86-1.16,2.56-1.25c0.09-0.01,0.16,0,0.21,0.02c0.11,0.05,0.16,0.15,0.19,0.28 c0.07,0.33,0.01,0.81,0.45,0.93c0.57-0.56,0.87-1.15,0.63-1.92c-0.11-0.35-0.44-0.62-0.72-0.44c-1,0.64-1.18,0.27-1.28-0.21 c-0.04-0.19,0.89-0.77,1.4-0.62c0.51,0.15,2.52-1.15,3.27-0.82c0.64-0.16,1.64,0.29,2.06,1c0.21,0.36,0.36,0.73,0.44,1.15 c0.07,0.41,0.07,0.86-0.06,1.36c-0.02,0.09,0.02,0.17,0.1,0.23c0.08,0.06,0.2,0.09,0.33,0.1c0.12,0.01,0.25-0.01,0.36-0.06 c0.1-0.05,0.18-0.13,0.2-0.25c0.16-1.11,1.33-1.27,1.98-1.91c0.22-0.21,0.37-0.48,0.42-0.86c0.01-0.1,0.07-0.18,0.15-0.25 c0.25-0.18,0.74-0.18,1.02,0.01c0.3,0.2,0.73,0.47,0.62,1c-0.17,0.79,0.39,1.3,0.58,1.83c0.25,0.71,0.5,0.93,0.74,0.91 c0.24-0.02,0.45-0.31,0.72-0.52c0.68-0.51,0.9,0.82,0.92,1.44c0.03,1.03-0.16,2.06,0,3.05c0.14,0.83,0.39,1.28,1.15,0.98 c0.21-0.08,0.41-0.13,0.6-0.16c0.39-0.05,0.77-0.02,1.15,0.03c0.19,0.02,0.39,0.05,0.6,0.08c0.33,0.04,0.69,0.05,1.03-0.02 c0.34-0.07,0.66-0.23,0.91-0.54c0.17-0.21,0.32-0.48,0.43-0.83c0.06-0.18,0.08-0.33,0.09-0.46c0.01-0.24-0.07-0.38-0.2-0.45 c-0.13-0.08-0.3-0.1-0.47-0.11c-0.17-0.02-0.34-0.03-0.46-0.1c-0.06-0.03-0.11-0.08-0.14-0.15c0.05-0.12,0.11-0.21,0.17-0.29 c0.18-0.24,0.38-0.32,0.59-0.32c0.22,0,0.46,0.07,0.71,0.14c0.09,0.02,0.17,0.05,0.26,0.06c0.53,0.11,1.22-0.05,1.68-0.33 c0.18-0.11,0.33-0.25,0.42-0.4c0.04-0.07,0.07-0.15,0.08-0.23c0.11-0.88-0.24-1.35-1.38-1.52c-0.16-0.02-0.84-0.08-0.98-0.18 c-0.99-0.7,0.26-1.36,1.87-1.42c0.81-0.03,1.62-0.16,2.43-0.39c0.41-0.12,0.82-0.27,1.22-0.44c0.62-0.27,1.17-0.62,1.74-1.12 c0.4-0.36,0.69-0.76,0.91-1.19c0.11-0.22,0.21-0.44,0.29-0.66c0.17-0.45,0.31-0.93,0.46-1.4c0.22-0.71,1.24-1.44,1.62-1.18 c0.15,0.1,0.31,0.21,0.46,0.31c0.07,0.05,0.14,0.1,0.21,0.16c0.13,0.1,0.23,0.21,0.29,0.33c0.17,0.34-0.07,0.75-1.31,1.33 c-0.14,0.07-0.14,0.38-0.19,0.64c-0.02,0.09-0.04,0.17-0.08,0.24c-0.28,0.52-0.18,1.14-0.18,1.75c-0.01,0.61-0.12,1.21-0.83,1.69 c-0.1,0.07-0.26,0.4-0.33,0.84c-0.05,0.29-0.05,0.63,0.03,0.96c0.04,0.17,0.1,0.33,0.19,0.49c0.17,0.32,0.45,0.61,0.88,0.83 c0.26,0.13,0.53,0.3,0.79,0.49c0.78,0.58,1.5,1.39,1.66,2.17c0.55,2.52-0.14,5.19-0.68,7.61c-0.39,1.76-0.27,3.87,0.97,3.43l0,0 c0.35-0.3,0.85-3.87,0.92-5.38c0.07-1.51-0.02-3.02-0.11-4.54c-0.05-0.73,0.31-1.07,0.99-1.38c0.28-0.13,0.5-0.28,0.65-0.46 c0.15-0.17,0.23-0.36,0.25-0.56s-0.02-0.41-0.12-0.63c-0.1-0.22-0.25-0.44-0.45-0.66c-0.34-0.37-1.21-0.78-0.8-1.22 c1.6-1.75,1.86-2.38,2.55-2.79c0.17-0.1,0.36-0.19,0.55-0.26c0.58-0.23,1.24-0.36,1.85-0.53c1.03-0.29,2.07-0.41,3.12-0.4 c1.04,0.01,2.09,0.15,3.13,0.38c0.52-0.41,0.47-0.93,0.08-1.31c-0.81-0.79-1.44-2.85-1.44-2.85s10.78,2.68,10.84,2.73 c-1.24,1.86-1.86,4.08-1.81,6.41l0,0c0.15,0.3,0.65,0.55,0.5,0.88c-0.05,0.11-0.17,0.23-0.41,0.36c-0.13,0.07-0.31,0.16-0.43,0.29 c-0.06,0.07-0.11,0.14-0.12,0.24c-0.01,0.09,0.01,0.2,0.07,0.33l0,0c-0.51,0.8-0.18,1.61-0.02,2.41c1.14,0.39,1.46-0.32,1.24-1.17 c-0.05-0.17-0.07-0.32-0.07-0.45c0-0.51,0.31-0.67,0.67-0.77c0.18-0.05,0.38-0.08,0.55-0.14c0.09-0.03,0.17-0.06,0.24-0.1 c0.93-0.53,0.9,1.14,1.47,0.92c2.89-1.07,0.38-3,3.9-2.99c0.38,0,0.83-0.03,1.22-0.21c0.19-0.09,0.37-0.21,0.51-0.39 c0.14-0.18,0.25-0.41,0.31-0.7c0.03-0.16-0.05-0.33-0.13-0.5c-0.05-0.11-0.1-0.22-0.12-0.33c-0.02-0.16,0.05-0.29,0.32-0.39 c0.1-0.04,0.18-0.05,0.26-0.06c0.22-0.01,0.36,0.12,0.47,0.28c0.04,0.05,0.07,0.11,0.1,0.17c0.06,0.12,0.13,0.24,0.2,0.35 c0.04,0.05,0.08,0.09,0.12,0.13c0.47,0.35,0.92,0.66,1.35,1.09c0.42,0.42,1.22,0.56,1.81,0.26c0.51-0.27,0.29-0.92,0.27-1.42 c-0.01-0.37-0.56-0.92-0.18-1.23c0.44-0.35,0.96,0.33,1.19,0.69c0.14,0.22,0.21,0.51,0.18,0.96c-0.02,0.34-0.06,0.7-0.07,1.07 c-0.01,0.37,0,0.74,0.07,1.1c0.1,0.49-0.05,1.16,0.44,1.42c0.73,0.38,0.59-0.69,1.05-0.79c0.92-0.2,0.96-2.52,1.8-1.81 c0.77,0.65,0.83,1.74-0.49,2.71c-0.16,0.11-0.31,0.33-0.42,0.6c-0.33,0.8-0.27,2.07,1.23,2.53c0.47,0.14,0.65,0.58,0.88,0.96l0,0 c0.71,0.94,0.45,1.93,0.01,2.82c-1.04,2.11-0.48,4.85-2.71,6.51c-0.52,0.39,1.86,1.48,2.71,1.21c-0.16-1.74,1.41-3.03,1.18-4.81 c-0.16-1.27,0.21-2.44,0.81-3.62c0.52-1.02,0.62-2.12-0.23-3.32c-0.61-0.86-1.73-1.81-1.27-3.14c1.48-4.31,0.41-8.26-1.62-12.09 c-0.19-0.01-0.53-0.01-0.54-0.05c-0.29-2.28-1.78-2.87-3.91-2.63c0.93-0.6,1.89-0.75,2.63-1.42c0.74-0.67,1.58-1.41,2.4,0.05 c0.26,0.47,0.79,0.31,1.35,0.17c0.8-0.21,0.34,0.5,0.39,0.84c0.94-1.05,1.33-2.12,1.28-3.67c-0.06-1.66,0.82-3.47,0.82-5.09 c0-1.47,0.3-2.75,0.66-4.13C203.08,60.37,202.39,60.43,202.14,60.13z M196.72,70.89c-1-0.45-0.27-1.51-1.11-2.33 c1.44,0.2,1.79,0.83,1.74,1.75C197.34,70.68,196.91,70.98,196.72,70.89z"></path> <path class="st5" d="M100.43,84.1c0.08-0.17,0.05-0.44,0.08-0.65c0.03-0.16,0.09-0.28,0.27-0.31c0.06-0.01,0.13-0.01,0.22,0 c0.23,0.03,0.37,0.18,0.46,0.37c0.09,0.19,0.14,0.44,0.18,0.68c0.13,0.88,1.08,1.1,1.13,0.68c0.02-0.21,0.05-0.42,0.07-0.63 c0.03-0.29-0.2-0.71-0.02-0.94c0.06-0.08,0.16-0.13,0.34-0.15h0c0.13-0.01,0.23,0,0.32,0.05c0.18,0.09,0.29,0.28,0.36,0.5 c0.03,0.11,0.05,0.24,0.06,0.37c0.03,0.38,0.05,0.8,0.24,1.1c0.28,0.44,0.56,0.96,0.89,1.14c0.08,0.05,0.17,0.07,0.26,0.07 c0.09,0,0.18-0.03,0.28-0.1c0.2-0.13,0.42-0.4,0.67-0.85c0.26-0.48,0.67-1.02,1.13-1.35c0.15-0.11,0.31-0.2,0.47-0.25 c0.41-0.14,0.81-0.28,1.19-0.46c0.38-0.17,0.75-0.37,1.09-0.6c0.34-0.23,0.66-0.51,0.96-0.83s0.57-0.71,0.81-1.15 c0.31,1.7,0.46,3.43,2.6,3.56c0.02,0,0.04,0.02,0.06,0.05c0.07,0.1,0.13,0.3,0.14,0.43c0.05,0.54,0.26,0.64,0.52,0.61 c0.25-0.03,0.55-0.2,0.76-0.18c0.84,0.08,0.64-0.64,0.59-1.09c-0.09-1.01-0.59-1.63-1.72-1.6c-0.4,0.01-0.75-0.32-0.77-0.71 c-0.01-0.12,0.02-0.19,0.07-0.24c0.1-0.09,0.28-0.08,0.43-0.1c0.08-0.01,0.15-0.03,0.2-0.07c0,0,0,0,0,0 c0.11-0.09,0.22-0.15,0.34-0.19c0.02-0.01,0.03-0.02,0.05-0.02c0.86-0.29,1.69,0.53,2.53,0.24c-0.05-0.36-0.17-0.7-0.33-1.03 c-0.64-1.3-2.05-2.35-3.52-2.43c-1.73-0.1-3.35-0.42-4.52-1.9c-1.7-2.15-2.27-4.76-3.13-7.28c-0.99-2.9-2.17-5.75-4.31-8.05 c-1.34-1.44-3.47-1.81-4.88-0.8c0.97,0.08,1.41,0.72,1.51,1.58c0.02,0.18-0.44,0.62-0.59,0.58c-1.01-0.25-0.96-1.13-1.01-1.93 c-1.56,0.17-3.13,0.33-2.22,2.61c0.07,0.17,0.03,0.38,0.01,0.57c-0.37,3.2,1.21,6.23,0.84,9.45c-0.05,0.45,0.03,1.26,0.75,1.54 c0.13-0.13,0.26-0.37,0.41-0.38c1.48-0.16,2.05-0.7,0.75-2.22c0.7,0.39,0.58-2.05,0.59-3.3c0.01-0.62,0.41-1.48-0.51-2.05 c-0.76-0.47,0.19-0.77,0.4-1.04c0.49-0.65,1.29-0.65,1.91-0.3c0.67,0.38,0.04,0.8-0.25,1.01c-0.87,0.61-0.17,1.23-0.1,1.96 c0.69-0.43,1.34-0.84,2.11-1.32c0.4,1.44,0.86,2.74,1.1,4.08c0.16,0.87,0.34,2.01-1.34,1.38c-0.6-0.22-1.36-0.01-2.05,0.02 c0,0.01-0.33,1-0.22,1.48c0.05,0.2,0.11,0.4,0.17,0.6c0.23,0.68,0.5,1.37,0.18,2.07c-0.29,0.75-0.05,1.51-0.83,2.3 c-2.24,2.28-2.1,5.64,0,7.86C99.68,86.07,99.98,85.03,100.43,84.1z M104.88,74.87c-1.48,0.09-2.65,1.1-4.19,1.29 C102.7,73.92,102.86,73.87,104.88,74.87z"></path> <path class="st5" d="M159.97,73.79c2.14-0.49,3.95-0.5,5.63-1.21c0.32-0.14,0.57-0.18,0.57-0.58c-0.01-0.41-0.26-0.54-0.6-0.57 c-0.34-0.03-0.76,0.26-1.02-0.24c0.77-0.27,0.67-0.97,0.45-1.4c-0.41-0.77-0.33-1.7-1-2.41c-0.43-0.46-0.9-1.39-0.29-1.87 c0.67-0.52,1.21,0.2,1.79,0.73c1.01,0.93,1.05,2.84,2.88,2.93c0.56,0.03,0.54,0.42,0.6,0.78c0.56-0.59,0.73-1.29,0.72-2.09 c-0.03-1.63-0.33-3.34,0.06-4.87c0.49-1.9-1.26-3.38-0.61-5.2c0.05-0.15-0.31-0.59-0.55-0.67c-2.34-0.77-5.15,0.74-5.77,3.21 c-0.56,2.25-1.44,4.42-1.29,6.86c0.07,1.16-0.29,2.48-1.04,3.54C158.73,71.65,161.48,72.75,159.97,73.79z"></path> <path class="st5" d="M99.5,91.76c-0.08-0.12-0.08-0.27,0.05-0.45c0.12-0.18,0.37-0.39,0.78-0.65c0.14-0.09,0.29-0.18,0.47-0.27 c0.1-0.06,0.54-1.84,0.21-2.48c-0.2-0.39-0.34-0.53-0.43-0.53c-0.06,0-1.38-0.18-1.81-0.2c-0.07,0-0.14-0.01-0.2-0.03 c-0.86,0.82-4.16,4.06-1.92,6.32c2.05,2.05,0.24,5.69,0.34,8.54c0.03,0.76-0.07,1.55,0.82,1.94c0.6-1.94,1.41-0.81,2.19-0.15 c0.56-0.72,0.77-1.78,0.32-2.32c-1.6-1.93-1.38-4.17-1.4-6.36c-0.01-1.59,0.77-2.58,2.54-2.41c-0.05-0.04-0.1-0.09-0.15-0.11 C100.71,92.3,99.74,92.13,99.5,91.76z"></path> <path class="st5" d="M151.81,52.26c-0.09-1.05-0.63-1.53-1.94-1.58c-1.79-0.06-2.61,1.4-3.91,2.08c-0.27,0.14-0.35,0.62-0.52,0.94 c0.71-0.31,0.78,1.38,1.63,0.53c0.51-0.51,0.94-0.36,1.53-0.14c1.06,0.39,2.2,0.81,3.18-0.48c0.02,1.8,1.28,2.71,1.82,4.11 c1.49-2.49,1.32-5.37-0.26-7.5c-0.14-0.19,0.11-0.68,0.17-1.03c-0.4,0.3-0.8,0.6-1.2,0.9C151.34,50.69,152.01,51.66,151.81,52.26z"></path> <path class="st5" d="M141.98,45.65c0.57-0.56,0.84-1.5,1.87-1.47l0,0c0.48-0.76,1.36-1.28,1.94-1.99c0.75,0.07,1.8,0.04,2.64,0.01 c0.58-0.02,1.05-0.04,1.23-0.01c0.31,0.04,0.63,0.01,0.99,0.01c0.07-0.55-0.29-0.52-0.44-0.68c-0.18-0.2-0.62-0.3-1.15-0.34 c-0.84-0.07-1.93,0-2.79,0.07c0.08-0.33,0.1-0.7-0.01-1.15c-0.29-0.05-0.58-0.1-0.87-0.15c-0.11-0.02-0.23-0.04-0.34-0.06 c-0.23,0.15-0.47,0.3-0.7,0.45c-0.74,1.47-2.75,1.83-3.15,3.6C141.67,44.41,140.47,45.66,141.98,45.65z"></path> <path class="st5" d="M117.68,81.5c-0.15,1.73-0.69,4.23,0.78,5.75C119.22,85.44,118.95,83.05,117.68,81.5z"></path> <path class="st5" d="M133.44,92.5c0.22-0.02,0.36-0.09,0.44-0.19c0.22-0.25,0.11-0.7,0.03-1.13c-0.02-0.13-0.02-0.24-0.01-0.35 c0.03-0.21,0.12-0.38,0.28-0.53c0.08-0.08,0.17-0.15,0.28-0.21c0.16-0.1,0.28-0.2,0.37-0.29c0.18-0.2,0.24-0.39,0.23-0.58 c-0.01-0.19-0.1-0.38-0.21-0.56c-0.17-0.27-0.39-0.54-0.52-0.79c-0.05-0.11-0.11-0.2-0.17-0.27c-0.12-0.14-0.25-0.21-0.39-0.23 c-0.07-0.01-0.14-0.01-0.22,0c-0.2,0.03-0.42,0.12-0.64,0.22c-0.11,0.05-0.22,0.1-0.33,0.14c-0.66,0.27-0.81,0.67-0.79,1.11 c0.01,0.15,0.03,0.3,0.06,0.44c0.06,0.3,0.14,0.6,0.14,0.86c0,0.26,0.09,2.27,1.07,2.34C133.2,92.51,133.33,92.51,133.44,92.5z"></path> <path class="st5" d="M150.17,97.49c0.02,0.25,0.01,0.52,0.04,0.77c0.02,0.16,0.06,0.31,0.15,0.44c0.13,0.18,0.36,0.3,0.76,0.31 c0.43,0.01,0.63-0.11,0.72-0.29c0.12-0.24,0.04-0.58,0-0.87c-0.01-0.07-0.02-0.15-0.02-0.21c-0.01-0.61,0.13-1.01,0.45-1.21 c0.23-0.15,0.54-0.21,1.01-0.12c0.21,0.04,0.45,0.06,0.63-0.01c0.18-0.07,0.3-0.24,0.28-0.59c-0.01-0.1-0.01-0.21-0.02-0.31 c-0.02-0.31-0.1-0.59-0.53-0.76c-1.62-0.65-3.07,0.07-3.4,1.6c-0.05,0.22-0.07,0.45-0.07,0.7l0,0 C150.17,97.11,150.16,97.3,150.17,97.49z"></path> <path class="st5" d="M138.92,52.64c0.3,0.71-1.12,1.66,0.36,2.24c0.67,0.26,1.72,0.12,1.73,1.39c0,0.34,0.8-0.01,0.74-0.22 c-0.58-2.05,1.2-0.85,1.74-1.61c0.06,2.09-1.24,3.79-0.49,5.77c1.91-2,2.01-2.71,1.16-5.34c-0.58-1.8-2.06-0.04-2.92-0.85 c0.86-0.43,1.5-0.81,0.8-1.99c-0.66-1.11-1.75-1.44-2.67-1.42c-0.06,0-0.13,0.02-0.2,0.05c-0.02,0.01-0.04,0.01-0.06,0.02 C138.34,51,137.08,52.45,138.92,52.64z"></path> <path class="st5" d="M150.73,65.22c0.35,0.33,0.49-0.59,0.55-0.94c0.26-1.45,0.87-2.7,1.84-3.8c0.2-0.22,0.27-0.56,0.34-0.72 c0.09-0.99-0.45-1.25-1.13-1.37c-0.72-0.12-1.46,0.12-1.4,0.86c0.11,1.49-0.7,2.31-1.74,3.09c-0.2,0.15-0.32,0.39-0.49,0.58 c-0.43,0.48-0.54,1.12-0.25,1.6C148.93,65.31,150,64.53,150.73,65.22z"></path> <path class="st5" d="M145.12,14.67c0.56-1.67,1.22-2.8,2.77-3.15c0.22-0.05,1.08-0.69,0.86-1.48c-1.86-0.09-1.75-1.44-1.75-2.73 c0-0.66-0.17-1.27-0.82-1.57c-0.3-0.14-0.81,0.03-0.79,0.31c0.04,0.62-0.31,1.25,0.19,1.88c0.94,1.18,0.44,2.12-0.68,2.87 C145.56,11.93,144.43,13.16,145.12,14.67z"></path> </g> <rect x="25.61" y="223.41" class="st0" width="247.53" height="1.83"></rect> <g> <path class="st0" d="M28.39,265.61c5.3,0,11.86-1.71,14.74-7.02h0.63l-0.79,6.85c-5.22,1.96-9.82,3.17-15.66,3.17 c-16.54,0-24.85-7.94-24.85-16.29c0-8.19,8.31-16.33,24.85-16.33c5.22,0,10.4,0.84,14.66,2.3c0.38-0.12,0.58-0.33,0.96-0.63h0.5 l-1.46,8.81h-0.58c-1.63-5.05-7.39-7.43-12.99-7.43c-8.52,0-17.08,4.47-17.08,13.2C11.3,261.27,19.87,265.61,28.39,265.61z"></path> <path class="st0" d="M82.22,260.18H60.29l-2.21,3.43c-1.25,2,1.63,3.26,3.13,3.63v0.63H46.59v-0.63c1.59-0.38,4.51-1.46,7.85-6.56 l13.95-21.3l-0.21-0.33c-0.46-0.84-3.05-1.59-3.42-1.59v-0.67h11.36l16.92,26.19c1.84,2.84,4.09,3.84,5.6,4.26v0.63H80.84v-0.63 c1.42-0.38,3.55-1.46,3.55-3.05c0-0.42-0.13-0.88-0.5-1.38L82.22,260.18z M62.8,256.26h16.92l-8.4-13.16L62.8,256.26z"></path> <path class="st0" d="M104.94,241.39c0-2.46-1.17-3.34-3.3-3.93v-0.67h21.59c12.32,0,16.96,3.76,16.96,8.52 c0,4.68-4.72,8.52-16.96,8.52h-10.44v9.61c0,2.34,1.09,3.26,3.3,3.8v0.63h-14.45v-0.63c2.13-0.54,3.3-1.46,3.3-3.8V241.39z M114.38,239.76c-0.96,0-1.59,0.08-1.59,1.38v9.73h10.44c6.26,0,8.02-2.76,8.02-5.55c0-2.76-1.75-5.56-8.02-5.56H114.38z"></path> <path class="st0" d="M160.86,236.79v0.67c-2.13,0.58-3.3,1.55-3.3,3.93v22.72c0,2.05,1.21,2.63,3.3,3.13v0.63h-14.45v-0.63 c1.96-0.5,3.26-1.13,3.26-3.13v-22.72c0-2.46-1.09-3.3-3.26-3.93v-0.67H160.86z"></path> <path class="st0" d="M195.44,267.24v0.63h-14.49v-0.63c2.13-0.5,3.38-1.38,3.38-3.47v-23.72h-9.94c-4.76,0-5.72,1.96-6.72,3.93 h-0.63l0.92-7.18h40.47l0.92,7.18h-0.63c-1-1.96-1.96-3.93-6.72-3.93h-9.94v23.72C192.06,265.86,193.43,266.74,195.44,267.24z"></path> <path class="st0" d="M243.59,260.18h-21.93l-2.21,3.43c-1.25,2,1.63,3.26,3.13,3.63v0.63h-14.62v-0.63 c1.59-0.38,4.51-1.46,7.85-6.56l13.95-21.3l-0.21-0.33c-0.46-0.84-3.05-1.59-3.42-1.59v-0.67h11.36l16.92,26.19 c1.84,2.84,4.09,3.84,5.6,4.26v0.63h-17.79v-0.63c1.42-0.38,3.55-1.46,3.55-3.05c0-0.42-0.13-0.88-0.5-1.38L243.59,260.18z M224.17,256.26h16.92l-8.4-13.16L224.17,256.26z"></path> <path class="st0" d="M295.25,267.87h-32.24v-0.63c1.96-0.5,3.26-1.42,3.26-3.47v-22.39c0-2.46-1.09-3.3-3.26-3.93v-0.67h14.45v0.67 c-2.13,0.58-3.3,1.55-3.3,3.93v22.22c0,1,0.33,1.29,0.92,1.29h15.2c2.42,0,4.72-1.67,6.18-4.26h0.67L295.25,267.87z"></path> <path class="st5" d="M49.22,279.73v0.19c-0.9,0.27-1.44,0.52-1.44,1.72v10.57c0,1.01,0.52,1.32,1.44,1.59v0.17h-4.86v-0.17 c0.86-0.27,1.42-0.55,1.42-1.59v-10.57c0-1.24-0.46-1.44-1.42-1.72v-0.19H49.22z"></path> <path class="st5" d="M72.06,294.39h-0.21l-14.53-12.98v10.81c0,1.09,0.52,1.3,1.38,1.57v0.17h-3.77v-0.15 c0.86-0.25,1.38-0.5,1.38-1.59v-10.83c0-1-0.56-1.21-1.38-1.47v-0.19h3.56l12.61,11.43v-9.69c0-1.07-0.57-1.28-1.42-1.55v-0.19 h3.75v0.19c-0.86,0.27-1.38,0.48-1.38,1.55V294.39z"></path> <path class="st5" d="M82.24,287.39v4.71c0,1.17,0.52,1.4,1.47,1.7v0.17h-4.9v-0.19c0.78-0.27,1.4-0.36,1.4-1.61v-10.49 c0-1.23-0.46-1.47-1.42-1.76v-0.19h13.4c0.11-0.06,0.13-0.15,0.21-0.19h0.17l-0.34,2.95h-0.17c-0.11-0.88-0.5-1.78-1.55-1.78h-8.27 v5.72h5.8c1.23,0,1.53-0.5,1.86-1.51h0.17v3.91h-0.19c-0.27-0.8-0.4-1.44-1.76-1.44H82.24z"></path> <path class="st5" d="M99.15,281.64c0-1.24-0.48-1.45-1.4-1.72v-0.19h9.23c4,0,5.97,1.65,5.97,3.79c0,2.39-2.11,3.79-6.28,3.79 l5.63,5.15c1.15,0.98,1.76,1.19,2.24,1.34v0.17h-3.39l-7.96-7.37v-0.23h3.31c2.7,0,3.96-1.23,3.96-2.85s-1.26-2.81-3.96-2.81h-4.15 c-0.69,0-1.17,0.02-1.17,0.84v10.55c0,1.19,0.46,1.42,1.4,1.7v0.17h-4.82v-0.17c0.92-0.29,1.4-0.52,1.4-1.7V281.64z"></path> <path class="st5" d="M132.03,289.61h-9.53l-1.44,2.45c-0.15,0.27-0.23,0.5-0.23,0.69c0,0.59,0.67,0.8,1.47,1.05v0.17h-4.9v-0.17 c0.61-0.17,1.42-0.25,2.49-1.93l6.64-11.22c-0.46-0.5-0.73-0.57-1.57-0.73v-0.19h3.62L135.8,292c0.8,1.38,1.65,1.61,2.26,1.8v0.17 h-5.95v-0.17c1.11-0.33,1.93-0.59,1.55-1.36L132.03,289.61z M123.07,288.61h8.38l-4.13-7.22L123.07,288.61z"></path> <path class="st5" d="M141.85,293.97v-0.17c0.92-0.29,1.42-0.52,1.42-1.7v-10.45c0-1.24-0.5-1.45-1.42-1.72v-0.19h8.98 c6.11,0,9.13,3.56,9.13,7.12c0,3.56-3.02,7.12-9.13,7.12H141.85z M145.26,292.21c0,0.61,0.46,0.8,0.94,0.8h4.63 c4.65,0,6.7-3.06,6.7-6.16c0-3.1-2.05-6.14-6.7-6.14h-5.57V292.21z"></path> <path class="st5" d="M169.78,279.73v0.19c-0.9,0.27-1.44,0.52-1.44,1.72v10.57c0,1.01,0.52,1.32,1.44,1.59v0.17h-4.86v-0.17 c0.86-0.27,1.42-0.55,1.42-1.59v-10.57c0-1.24-0.46-1.44-1.42-1.72v-0.19H169.78z"></path> <path class="st5" d="M179,280.7v5.47h6.13c1.17,0,1.57-0.61,1.82-1.51h0.21l-0.33,3.9h-0.23c-0.1-0.71-0.44-1.42-1.28-1.42H179v4.9 c0,0.67,0.38,0.98,1.07,0.98h7.29c1.72,0,2.47-1.19,2.99-2.03h0.19l-0.75,2.97h-14.32v-0.17c0.94-0.29,1.4-0.52,1.4-1.7v-10.45 c0-1.24-0.46-1.45-1.4-1.72v-0.19h12.69c0.21,0,0.42,0.02,0.63,0.02c0.31,0,0.61-0.04,0.88-0.21h0.23l-0.34,2.97h-0.17 c-0.06-0.57-0.25-1.8-1.53-1.8H179z"></path> <path class="st5" d="M213.02,294.39h-0.21l-14.53-12.98v10.81c0,1.09,0.52,1.3,1.38,1.57v0.17h-3.77v-0.15 c0.86-0.25,1.38-0.5,1.38-1.59v-10.83c0-1-0.56-1.21-1.38-1.47v-0.19h3.56l12.61,11.43v-9.69c0-1.07-0.57-1.28-1.42-1.55v-0.19 h3.75v0.19c-0.86,0.27-1.38,0.48-1.38,1.55V294.39z"></path> <path class="st5" d="M219.09,289.95h0.23c0.8,3,4.52,3.29,6.8,3.29c2.97,0,5.99-0.57,5.99-2.89c0-4.69-12.35-1.01-12.35-6.91 c0-3.39,4.06-4.08,6.95-4.08c2.47,0,4.06,0.5,5.36,1.24c0.23-0.06,0.44-0.13,0.46-0.27h0.17v2.91h-0.23 c-0.75-2.72-4.06-2.87-5.65-2.87c-2.93,0-5.44,0.67-5.44,2.55c0,4.19,12.37,0.56,12.37,6.87c0,3.85-4.57,4.52-7.66,4.52 c-3.08,0-5.44-0.67-6.8-1.36L219.09,289.95z"></path> <path class="st5" d="M248.93,293.8v0.17h-4.84v-0.17c0.86-0.27,1.44-0.48,1.44-1.55V280.8h-4.94c-0.8,0-1.86,0.94-2.28,1.84h-0.17 l0.34-2.91h16.06l0.34,2.91h-0.17c-0.42-0.9-1.47-1.84-2.28-1.84h-4.94v11.45C247.49,293.32,248.05,293.53,248.93,293.8z"></path> </g> </svg> 